<mxfile><diagram id="iUW_dyfUETQskF_mKvlY" name="Page-1"><mxGraphModel dx="1130" dy="499" grid="1" gridSize="10" guides="1" tooltips="1" connect="1" arrows="1" fold="1" page="1" pageScale="1" pageWidth="850" pageHeight="1100" math="0" shadow="0"><root><mxCell id="0"/><mxCell id="1" parent="0"/><mxCell id="2" value="Como parte de las pruebas funcionales del sistema, se han probado todos los aspectos requeridos mostrados en los criterios de aceptacion&lt;br&gt;&lt;div style=&quot;text-align: left;&quot;&gt;&lt;span style=&quot;background-color: initial;&quot;&gt;obteniendo como tal los siguientes resultados:&lt;/span&gt;&lt;/div&gt;&lt;div style=&quot;text-align: left;&quot;&gt;&lt;span style=&quot;background-color: initial;&quot;&gt;&lt;br&gt;&lt;/span&gt;&lt;/div&gt;" style="text;html=1;align=center;verticalAlign=middle;resizable=0;points=[];autosize=1;strokeColor=none;fillColor=none;" vertex="1" parent="1"><mxGeometry x="20" y="20" width="770" height="60" as="geometry"/></mxCell><mxCell id="4" value="&lt;div&gt;&lt;span style=&quot;background-color: initial;&quot;&gt;Los sistemas de ecuaciones del programa deben manejarse con las variables a,b o x,y.&lt;/span&gt;&lt;br&gt;&lt;/div&gt;" style="text;html=1;align=left;verticalAlign=middle;resizable=0;points=[];autosize=1;strokeColor=none;fillColor=none;" vertex="1" parent="1"><mxGeometry x="50" y="760" width="490" height="30" as="geometry"/></mxCell><mxCell id="5" value="&lt;div style=&quot;text-align: left;&quot;&gt;&lt;span style=&quot;background-color: initial;&quot;&gt;El sistema debe permitir al usuario ingresar cualquier valor como entrada tanto para seleccionar la operación a realizar como para los valores de cálculo&amp;nbsp;&lt;/span&gt;&lt;/div&gt;&lt;div style=&quot;text-align: left;&quot;&gt;&lt;span style=&quot;background-color: initial;&quot;&gt;sin generar errores de ejecución.&lt;/span&gt;&lt;/div&gt;" style="text;html=1;align=center;verticalAlign=middle;resizable=0;points=[];autosize=1;strokeColor=none;fillColor=none;" vertex="1" parent="1"><mxGeometry x="40" y="80" width="840" height="40" as="geometry"/></mxCell><mxCell id="6" value="&lt;div style=&quot;text-align: left;&quot;&gt;El sistema debe presentar respuestas con dos dígitos decimales, ya sea que los valores ingresados fueron enteros o decimales con más de dos valores fraccionarios.&lt;/div&gt;&lt;div&gt;&lt;br&gt;&lt;/div&gt;" style="text;html=1;align=center;verticalAlign=middle;resizable=0;points=[];autosize=1;strokeColor=none;fillColor=none;" vertex="1" parent="1"><mxGeometry x="40" y="380" width="910" height="40" as="geometry"/></mxCell><mxCell id="7" value="&lt;div style=&quot;text-align: left;&quot;&gt;&lt;span style=&quot;background-color: initial;&quot;&gt;El sistema debe notificar al usuario si una operación es matemáticamente posible o no.&lt;/span&gt;&lt;br&gt;&lt;/div&gt;&lt;div&gt;&lt;span style=&quot;background-color: initial;&quot;&gt;&lt;br&gt;&lt;/span&gt;&lt;/div&gt;" style="text;html=1;align=center;verticalAlign=middle;resizable=0;points=[];autosize=1;strokeColor=none;fillColor=none;" vertex="1" parent="1"><mxGeometry x="40" y="580" width="490" height="40" as="geometry"/></mxCell><mxCell id="8" value="" style="shape=image;verticalLabelPosition=bottom;labelBackgroundColor=default;verticalAlign=top;aspect=fixed;imageAspect=0;image=data:image/png,iVBORw0KGgoAAAANSUhEUgAAAbYAAACWCAYAAACy0q3yAAAAAXNSR0IArs4c6QAAAARnQU1BAACxjwv8YQUAAAAJcEhZcwAADsMAAA7DAcdvqGQAABx1SURBVHhe7Z0vb+tM08bnfXFISXSDg0JySFFwUAsrBVXqFwiqVBpYFZZWKuoXqFQU6cAWFQeVNCSoKCQk/H1ndtf2+s+u7Y2dJs71e5T7OY273p1dd8ezXs/1P//999//UYcYP7zSbNTTP6zmdHX3ov+9A02dc/r0jy42j3Rz/2m+AQAA0DT/a/7/MJk+0b9//8znlR7G5nsPn/c3dHV1RY+Lrflmd9o4JwAAgHY4WMcmUdK/SZ8Wj1fKqVxdPRNdP1AF3wYAAOCEOdClyCk9/ZsQza+oeNVvTA+vM4pWB2m7oMebe7IX+NTy4dlHftlQosDJwPwgRWVpkNT5zj6S+orKF5/T15bMMUbXJ0e1jXFLrHLRkuUz3cZLoKu4L8ptBwCAU+YwI7bpOU/4K/rK+KSI8cM10XMUyT3SgkZ0W2WdUjk1Owq82vl5l68t0yd2QOt5XNd8pb5mxDlNqM9Ozi43e5qa40S90Uw7UT4uS6CDCx2tBtsOAAAnghWxZSKICI4Irm5+Gj/mjTKUA5KA7Y4cvi1FtehKRzrDZdHmDX0sLGJLE//O2x96nZ3Rh2VDvHnk5zpv3/gh/n3uNJr0rT6yjmVrrtKmgxpbAABomcNciixzbGqiH5G1wpfbrZif8H3Lmzs4NldbyhzbxSbtADKOzbl7soLtAABwylhLkTLxRzsQrc/rQyvHvItn3xvacixwnqzMWfA5eWKneBmv6m7Fb9o0vqkxtC1M74z+mn8q/p6lnVUhofWFjVHoMSyMAgB+k4N9j02im8lgZUVtHFU9XdL9nV4CiyOvKIIpjdjMd6N1QSSYWaaMNpjUjQJTbZHAKzmm6+6R3jzyVx2TZ2w6KkvX737fzVdf0k4AADhlDvoFbe3czA8cwy0eb0jm+shJaFa0WPRppBzOt3IQ9i5EhTXxp8vKIyHjQOwlvu2C5sshTSqc090Wrs/egcm//7i5oFt6Ng5LO6nYPKuNbsfmsx2ODQAAhIN2bAAAAEBdDjvzCAAAAFATODYAAACdAo4NAABAp4BjAwAA0Cng2AAAAHQKODYAAACdAo4thcmmgewZtZF37yTziJXHuYRD6Gt5Mb5am4/TPgBOkwLH1vQfpJ48kHLp95HJ+bUFJQD1Ir0kbb5Kcm0KbdW3b1z2AQAOk/QL2ib5sMpmMVw2kKU9k6rK/KykXDBD7B2ZoJ3JlVtg3/XVR1+PdvJrAMDxYzk2jtRe/9AbOzP+a6dZE45NHKUji/3N1RtXc0v0/EFnsyi1VCY3pJ3KqiDlVJAQp53miolSaqVSVVl1aSSKtdJfxeeUusJsyB1LlXMgbT/f0KI/4nJbWsyXNJyMqJdqT952/jKVRiwmbo+jnS3V5+9rxjFG/rEN6E9T5uxjTjSpMH4V6zsc+wA4TaylyBe6i/+ImmH8p0+0/kmf8/OH1rGL6NFodkEbI/w5Xw1oYh5ipEU6H3lynaSWtYKEONWEUiw0+nl/E58rjUwoPlFQ2wY+th3QhanPZ8P44TYlQnpVdZIajFSEMV9xvRORuZnTqjekSz6ty/bINhE6lUk0rtNMuN6+bqE+d18znjHyjW1wfzKDSfE1GFrfodkHwKnR6uaRv2c92m6+zU8RafmY1VwnNhZevngm7P/hf03pXDL7x3e6n3T/saLe8FI5L4XczUYT5fuStkYG5vP+Lj6flHtfbql3JkfYQV0MuNizdbwC02u+S17RR1yI2/K8oO3g3Pxs22DXV8EGPkflvQgRbPebOeV28Zaa3Ny2+3C3U9F4fT78Y1RaX0h/Mrlr0Jyn+fp+xz4ATo1WHds3e7D8RPeXznoeDTF2UBzqUZ+jukm04UQ+1tKNsF2+85++4fOebqI7WFnqtMolS2JSrwSQBTNKGdsNu+OalNggd/UqOjDHGtlk4bTdQ4W+dhJSn5eSMfLU11h/Ki1AQ+P1HYB9AJwArTq2z5+1isBSf4JqIuXvXbAT0cgzhGjZxXxKl0qnHiHOHYRGg0RBBb8NL3fR93Naj2Y7TVb3nz7byyhup4/d6nPhG6Py+hrpTxlbvgZfWqnvAOwD4ASo59iiO8qqW/ZfvmjVS54T8Ano4Vb+eN/Mzzb8h82RgkRi9PlOyy3fnVZ/aShFfEfM7b2N73r10s5g8sQ11UBs4Igmem6mbFDLSUU2WNSyoTl172LbNSqCtpdChVb6WlNYn5fyMfLVlxDan2Zs5Ro0NFvfb9sHwGlg7YrkP+rUriuDvTOL/9iUGGdqt1YZ7LCsHYXOHWBMckxwH/dtIy8T4kwfj84pG/kKbI93tKVtSL7XbbS3i6vzx/W5bCior2j3XBbZeGB2mf6N+0DUuGXzww29X/ptz7UnY0eunT/XLdQXLgbrHtuCc1bpT+f46OsqrL78ORW/Yh8Ap8kvCo3qCQDvEAEAAGiSVp+xAQAAAPsGjg0AAECn+MWlSAAAAKB5ELEBAADoFHBsAAAAOgUcGwAAgE4Bx5ZC3ler8QL60XFc9sn7ipI+KvDd8QxdH1sAQETasckL2PLHbz7NTCjyvlpyTkwsuyMTftfTKYmNXRYvBQC0RybziGiLmUznsbxGkvm8PvolbAiNNosv80rXOWXbAQDV8Gz312mkKBbwDMBKARVPQyotF4RGc8dS5YrJpmKKMef19Ust+xRbc1MTarujnPR/HfFS09b2bGcc10RujFLXUv3xAwDsh1afsUFo1G1DiHBk1EaXgKfg6he3fdJOdkAy4cu5HhdKtkVrlIXaXlLOI17q6rO2bPddExD+BOA4cTo2NdnxHWokMhkChEZLbGhDONLRL26knWzDl2mnyvYvwyBeJtD2snLWdWWLl0p0WNpnPmrb7r8mIPwJwHFS6Nhk6WYiE0y87BIGhEbdNkgU0YZwpLNfnOgbjcG5maLHlzTk8Vm+m7OE2C600Gdl1Lcdwp8AdJGcY9PPI0TvcPelFQiN+m04DOHIT5JhosFET+Cq/6wIJtT2lvqsWXzXhO9a0kD4E4DDJOXYEqeWLA+miO5gITSqltC8tCg0Wl/A0wP30YVE55ET4U+84zDU9hb7rFHbK1wTEP4E4PiwdkVmdrFFyHOL6I5ZHBt7PgiNRt/rNu5NaDQmc15T1t0v+XYorHLZFb9kLEJtd5STzRoe8VK9YaWozxzXxY62C8XXBIQ/AThWIDR66qibFdmZaC09q++GtNzpHUYAAPgdWt3uD46Agmdf48shf7emkH02AADw28CxnTovd6ndfXr33xovGwMAjhYIjQIAAOgUiNgAAAB0Cjg2AAAAnQKODQAAQKfonGOTd4+iTRD/Al/w3h/yrleNF94PHHmXrHvZN45vjLo5DgnHYl/Xx+GQSTk2GYjYKfBnd78g76qlz9m2s/Fmcu8I+IMBAAA3KceW5L7jz+OC+pNXamL+FF0sfd45rQZp+ZnT5oXupF8qZ3EB+wdjBMCxUSI0GqU5Ml/VJptdRP+cU9SOsxbZaYkyx0jyGUbvVmXSNRWk+Eqnd2KU7pboplrvZ6W+c7dFIiSXiKUftw2pdE25dEzF5b4zqZ9i4vIOG8TOOuKelVOmZdtpp79ytKWUknJqzJL8X3aKssqpzbL2FZ4zk1Ir137XNSh17U98VpMt18I4VLYh0y+KLd/UPqsyxWMkKcpq9BmT2Fc+FxRT3E7Jk/tz7ft7z7QlVV8b7QQhuJ+xTc9psF1SpF7SCEoSJUksGybEKRePT/zSgUnMG6mzCEoIdfWlzhsqbOrDJ0bpWzJ1lYvKuMQ2vTZ4xD294qwe0vXpdkWU9acLbznlgIpFQX10WXxWaGMcfG3xndMlWltO1T6z7QucCxi3uK4+HiJk3EY7QRgZxyYDYJ6F8R3s6qOZO4rBxJxT5R+M7nwChTg9Ipb+y+SF3uQCjT3bmC6HIjQg9YcLm5YSKkZZu5zbBgW3v0jcUygV1CwiUgWI67MJFQz12cDXZohQLNNp8dlWxsFQ2BbfGMkxuVc0x2zR2goU9pnPvuC5oEI7HX/vzmuplXaCUDKOjTv8Jrkb2Vw0s0lBP2OTu7AeDSVEEHYR4gwUv1QXaHQxSfRIJiLdRdjUg9cGD0HldhHplKTHVrnC5c46hLbFW24HoVinfR0Xn93hmnC2xXvOEtHaNgiaC8rbWV/IuITAOQuE4V6KtO9GGsHc2Y2urbsUvsMxYXv8sdadnUKOoSKWRu9LrmdJ9MtXcnLxlrQllFAxyrByxTb4uP+clgpqhhHany4bQjXPfPbtoKPWkpBq8+Kl4de1uy2uMSoRrW2DoHEIbecOfyvB1wsIwePYpnTNdyNxuC5Edyuh7/S8vCVr56FCnB4Ry7IISi5ocdb9P1O6HK6TpYFabQkldBLNlysU29zRhmqCmhafP7TmcYhveh9eE0230LZ4y+mx84mCxktJ06fcnXSxfeXnLOSQxGfbGIccVlt85+S+dYrWGnxjVIjPvtC5oEI7fRReS220EwRj7Yrkzs7s6Mnt/OOBrCc0qs+Z0lyLH9bLenq+Tr2LqEyIM7PDKD6WP5+iqGzqO8HVFr+wqZuCtlRqZxURy0x5z3mVDT/XXnHP90t7t2VenNWJGkszCtyGx80F3dKz6Sd3f/rxl1M76ayD8bHo2tRf0nw5pImxIV2mg+KzjY9Dvky6Le5zyt9KPKEbysdIX/POPvPa5xoHP752+v7evddSC+0EYSC7PwCgGZTjOgLR2mNpJwjGsxQJAAA1OBbR2mNpJwgGERsAoDHyS3zyLKt8B/G+OZZ2gjDg2AAAAHQKLEUCAADoFHBsAAAAOgUcGwAAgE5xsI5N3heJ0tYUa7jJeyE7vCwOAACgkxQ7NnmnozGnYRyQ9amSCEFy1dVKWQMAAAAwBY5tTA+3I1qvLO2LYCRDgS3XoD/NvHAPAUgAAAB5co5N6TDRgt6+zBe7UJrdWxyfFc1VjBB9y5Tyfooka7V/Z+dUeQAAAI6GtGMbS1JPSXTdUBSkEqaKgOArxfk/LUIFLsuWKUNEQQEAAHSDlGObXjctM6H13R4XxM5NR0+2DEeQwGUVHCKBAAAAuk/i2KZPNOkv6LmFDKBRhCUS7OzhkuXDaJOK+dgZ1nchRBQUAABAN4gd21S00nsjmkWORhKpmZ8be0bFTuZZlg/7f/iHaUsClwAAAE6Z2LElarnmM1/pJT3+d7yLcefXAMZ0OeSobP1jfg4QuAQAAAA8pDePNI0I70URoPrMaLSOBPZe6E02dkzMsdkZLeOILdktqZYnIwl3FTr6jgEAADh1kN0fAABAp2g3YgMAAAD2DBwbAACATgHHBgAAoFPAsQEAAOgUcGwAAAA6BRwbAACATlHZsUH4sw3K+0zUCqTPG31NT94vbH2cxLYn/i8AAOyXlGOLJlH7EyUthvDn/pHxkPydqewvuyLZYyb9AgWHHW5MCjPSyAv4fZo07kBxAwUA8JOL2LYZUdCbykmRIfxZH3+fqTRnjfanFpHNKTioDDHntAm6adHnXBcI08rN0HxdTYqoEju1EwBwKjTyjM2/TGnusFOfSJ8tIzRaab1Nl7F/VdWvvpBjcm67Tns5LFNf5bv+jA1xubL6mExasSgCrtVnderzMb1WIrJpBQc+18WGo8I7ejff1KFMmPblTRQdrgvaaGyoNObCbu0EAJwOjTg23zLl9GlCg9VcR4CPC5LfWM1vVMQwfTK5I+WYCI32Jym9tjBE2PSCNo/mnNsBXcTOJETYVJzJhPpxJKvLzeIJ2a7viuarAU2iY+LUZNnPHJNPFAG7+6xOfWn7yhAFh5Skj4KjxtCoUCWuLhGmVWKzAzqv6r+c7NBOAMBJkXNsoj4dRwr8qXxDXciURA1n9WUeEKlJTlRrZCKWYyuaxw+PPun+Y0W94aWJTsKJHKec0xYvDRI2lSint6KPuCC385kd9ODc/GzXx9Pv18rI8rCDumBHUle4tVZ9dcRZx/Snb6kpNEA1YdpP+llHY25jlmEbe3gIAACa0mdsu80737RhRzaIbtfHlzTsbWn5zjPh+A/1iaMby4kqDbg2iTY5mE9lYdPthi2pQe+M//OXzpRCT4AjqVtfJXR7apPps3jpk6PRqsK033wRNKKMDgAAFWhkKdKNvluPpWWUsKh9h88Rm+VE1ae15aZpuLApO6rUtPz3jLw+gh1T5NSDqFtfJQLboxTI7THSauR1hGn/skfdbpp31QAAUES7jo3v9i9kudGaGONdlubZS/w8qibx0hZHDpUjL6a2sOnLF7tf+zlWtMT4Zn62YefJE7w8x4qWCQeTmu9y1aqvDq4lwTAqCdMqXEugdTePAABANVJ6bOq9qcxqoCxNchBFD68zyvkB2RRy9+059uI5p0x0slEiXTY55kGWxzj6UsV4Mp0vhzQ5+4jbcvaRTK6y+3Cmjr3of8eVrWix6NPIHPMjk/CE3Y3B2Fal/ek6q/Snioe89bnsK0VtZiG+0dBRlyZvg0KcVJ3oWc4tuxazZdRYndFHqk7B2BjbVkZD7QQAdJ52hUaLJjX13ZCWj8mGi+Ml72gOG93e4bLCzUNDyI3NxWZ/9QEAQLtLkQXPhsaXQ/5uTQ1uzgOV0TssaXRr3iNsF4kmq24wAQCApmjXsb3c6fe6og0G/JmN1pmlMLBXZDPIfM2+re2UVFO6lrHGMiEAYM+0uxQJAAAA7JmWt/sDAAAA+wWODQAAQKeAYwMAANApGnFssvst2hxyGC/cyrZ2T1vknat4Q0ukNPAbmJeUG9UWK7EdAAA6TiOO7bhESNmZTAa0mkdZM9p9n07e49pdsQAAAEBVPI5NoonfjGZ2pzA/oUq+vKJIcOB3aU+cNWe7RKmI4gAAJ0Dxdn+TskoSBqcyRqiUTEl+rML0Ubn0TplUSKkUSJljKily9I6b79gOeNJKFaeqkjRdt0TPH3Q2i9JcZdpS0C/PdFucw9KkkFLnj47n0kplUmrFfSbtLGmLE9OfhBRUAIBuk4/YZJJmp7aeWwmLBTV5F4tm+vCJeyr15VhoVD7JBO07FkL8HFA5IOul8UpRjEfc09Ev0fKszg1sSQEZB7Z/odFPur/h9qwlA3/NxMwAAHBEpBybmvzNJJ0KIGSyDRHNZErFPQfn7knWd6wmkSNRWehVlJN2NGUUi3uG94uT1oRGNZKV/3HRZ8d+3MvMAADgwnJsY7ocFiydKXYQzZRlzSg64o+9PCfOxk65ZW+y8B07HHboFx+tCI1m4cjvGnEbAKB7WI5NL1VdSR7BWVYsMlQ0c1oq7pnoes1pPZqlHJjv2GGwg5ioj1aERjWyS1Pn6+R+rRitAgDAMZF/xvZyR1ePC+pP7CgpUDTTUE3c0+ckWnIgGeqLl5b3yzc3vDe85Hi4Iq0JjWqnJtn2H3d8XgkAAIeMJwmy7MyTTQrJe16pnXxMFdHMdBlb3LNAoDQjqFl8bEfUZo/srkjG7ARVVdYQL41/zvVLtDyZsUXZ4Rdn1X3fsNCo2H3+Vf57AABw5CC7PwAAgE6RX4oEAAAAjhg4NgAAAJ0Cjg0AAECngGMDAADQKeDYAAAAdAo4NgAAAJ3iaBzboeqayXtkUbqw/cnCyHtuXF+jAqXtIWMn/QPVHADAPrAcm7z8ayZo61PVmZyqoKY7Sz8Qkmwn2cTaR0Amz6ntmFM3NAXHAQC/h+XYTK5IJYWSSK1UkaYB+6Y9gdKmUfk+j1L/jW/0boe0jOSI5isaTNKKCCk5Iv4gqQsAh0FB5hGdtmm4zKaFKha4/M6kk4oxaaDkjv1ikxbeXM2jScAlqCnodtintlN4edNKqbRZ8VmtFFeZc1ZO01VernJqK4W7P6W0r89UPVFD7HaolFkbWvRH3M4tLeZLGk5G1EuJlBbb4B8jFz4bdF2FY/R13lI7fdeSYI5XHvMsujwbGI/DLbcEN34AHB41nrEVC1xGS3EuQU2hN5rpSY2/lyW7wcUDfysTmFtQc/rEk5slNKpk1KqgnFqxIGr6nFxff1Jp+TS0nB+7P8W+AU2stayiPpMavUufg5FyJvMVn3tyRh9Xc1r1hnTJBctscNXnJ1D0tOF2ll1LAIDTotbmkWCBS7l7No7u831J294Zz2AeQc3xA10M+O6/9p01T3BO4c8pnafOyfV9rCpk3g8tV07Sn5LUnz13/09yzoI+K+1tLvNmmilqAFGL7z8r2BBSHxN0TTTcTt+1lLg2s3wbn7se0yeO9qx2C+Jk42dscKIAHAx72RW5Xb7zVGP4vKebqzv978YFNT3Cn+M/1KdEuFR9rOVKJ6HlQrCcSVGfhU3JTAUbGq0vlMB2KloUZ5Vlx4k4XGtpM4qc7cgSzg2Aw2Avjs1JNirYWVCzTLeNJ6d4MjKf1HMYF6HlatKqcvaebNiZwHY2fi1p9DNN0cr1OXodrQIADoPGHFujgpqfP7TmY+fmBljfMet/RxSLgnqEPz/fablNP8eqRGi5WkzpiQ1MRSNNshcb8tQWbg1tp+daSpyRbP7gCLDGuROnliwZF2IEdFdfe49xAQAFWI5NHsDL8s9M7UiLnh9U3STxef+sH9hHS0ilE4g885jTOn5OoTcN6I0efExtr9bnks0CyWYJ/fyEonIXG5pbGylkiehx0U8tZ2kbuNyNWTLKHfPhKxf1GbdROm1gfqfi5BnZ9++f3vhQvsMurL6HcajtofjHyEV4O33XUihTulbOWDbIJG2Rl+LtcVCfmX4tIPDxHQCgYSA0+ivIxJjeDg8AAKAZfvcZGwAAANAwcGwAAAA6BZYiAQAAdApEbAAAADoFHBsAAIBOAccGAACgUxyNY5PM7u29dxWOvMQbv89U98XiA2WffS11Sd91pOsAAAeA5dgyL52aT9UJ7lAdT9tAaDQcuWaOVoRUYbKZ5JTMM39L8NoA7BXLsUnWB8nN9wihUbAXjleElBF5pH/ntCm4oUlL78xpNWhC5ggAUBUIjVYKFcrL5dpQStY+3Z+6tK++TJ8ptjyBPnv65ZuPuYVN822x+8w3Ri7kfF0WIeXff/1Db/pipNlwmZxv/ECvKsVWkl9S2Wf/DgCgVWo8YysWlYTQaBjjh9uUfVexk/HXp3TBZAKWY48Ldmkygd+oY37coqDuvvaPkZ8ui5C+0J3LSYmqwHZJ79HBKAF0RX07AMDu1No8AqFRoWq5CqSEMCPc9eljPA5RFnmVDd/Kol9C4fj5+rqSgKebUxEhLUQiN3m+NiGOVNk5U58qDhMAYEf2sisSQqN5JNKdr5LzxpGHtz6tNzeI9Xwuadjb0jIOD1qgVY24GhyoCGkhPY4IZxJtSoTIkbhq+5qKLksAQPPsxbE5OXGhUbV5Qp1PS64ky2rF9Um08bPm/4vkapRYWFF02iAtCXiGETgO+7The0Nb/l9KmFQtTx7IDQIAJ0Bjjg1Co7tgOWRffdGyoTWxZ3et1hf39PR1JQHPMI5dhNSJamePRrfRKwCmvrZEZAEAOaxdkfwHmNkZJ1TeiZgtb3aYRbvVshOwJrNbzd6VpjaBmCP8/ePmgm7pWZ9H7Twb6bvu7YLmyyFNrLaotlmGOHdFMskxH65yul+yfZayo5CCvk6VcbdTvfuVcfKxDc5+kV2RnvHz9bVvjJzo9jvrc7VTdkVebNTuwb/xdfOX65dNKPK8zt8vQdeZwhyvZJtQMH6CPONTEWT6eLVrDADQFMjuf0wohyDPbqxlLvVdens5AACcMr/7jA3Uo+DZ0PhyyN9hYwIAAEQgYjsy8kuR8szNiuAAAODEgWMDAADQIYj+HyXC6N8WNjEFAAAAAElFTkSuQmCC;" vertex="1" parent="1"><mxGeometry x="50" y="140" width="438" height="150" as="geometry"/></mxCell><mxCell id="9" value="" style="shape=image;verticalLabelPosition=bottom;labelBackgroundColor=default;verticalAlign=top;aspect=fixed;imageAspect=0;image=data:image/png,iVBORw0KGgoAAAANSUhEUgAAAUIAAABHCAYAAAByF06bAAAAAXNSR0IArs4c6QAAAARnQU1BAACxjwv8YQUAAAAJcEhZcwAADsMAAA7DAcdvqGQAAA27SURBVHhe7Z0rb+PAFsfPvTgkJFpQFNKSoOCgLKwUtFK/QFCk0sAqMLRSUb9ApUWRAlsUHFTSkKBFJSHh954zD3vseMbjZ+z6/FbW7no6nqePz7z+/c+vX7/+BwzDMB3mv+pvhmGYztIqQzh/3sLbaqL+1xwmqzfYbrfyep6ru1Uzh2dK720FzauRS6jtqH5qqx6GyUDMEE5g9aZeaOPyNT5NNVRVs3t6gPv7e1jvz+oOY0L9YjbYwxrr6PFV3WwLkxW8Ge+CacgjH8CEcKY9xAzhDp4e7vGlXgO90+f9WrzgD087Fc40h1d4xLa5f3jCVms2r4/tyOcl6BgsbuGwpncCr80RhrM3ML/1+h3RV+sMPSOwLJaQZ7iE28PaMIJ0bwHw8gH95QyG4t4RNveP8IVfxuW4J+5EOG7gHnsGeQTT0xpeYBH83HGjOw0N8fTzkDN6DsFLI/NhPpo6HgaL+/2PsOPR13nZ/xDpCebPsJ0FT1Xx6KmxZ6o8ppMe7yIPTuz1SbFddSbS0Rkx80FlHp1gPxhjPs+w3xzgdjaGXlCn9jK428iGqwwyrcQ2+hxVlE9XXyJUuHebx5HxsYBBOywwJ+wotJ+Mc4Q9GC+ncBJfSPIahzDFz6MeGuIHM/qFNDpbb7yULwHepyHkcLrCu9ThZzAI4uAzYQxLNb6YP+PL8I2dVj2Pnu+FMIID2OsvOV66s0afiekNZl7D+bzx3Jj1SeUbwswYWyXVGaXoHIoPx8L4bI747FkfPu43cOzdwm+MmFYGW3pukvtEKiXnM60vMYyLzIslx80DSJuyg/fDGXr9O3E/Ffo6K8O4ez/AudfHHv8Hv/pH+Ai+qDg0f9nDeTiizy1Mh+hdZP5y4wsxHWJyLyqfJnMYRZ6J6X0coXf7O+WFzxsvnbA+cQj5iZZ+cBM+M6HOUmsb4/xV2Tzv/wrvknjaeZQhT3pIrj5Rcj5dfSk0hWo6IXh2NubP6E0a+SbIKAdzhGx0W0ttq8bnwzt2TcXuCR5w+CQ4n+BL/qsk7qCPI6bvfxdWEG3kDQxw4DQzJrfN4bOVvPHyYBifpDrL9wojHmUoNb285MynoPS+FELD4BkZaGOorT1z03NlY9hOajOEVuJex10fB1tF+IKTc/EWO3PQedUVmUeykTdeRip8mWsrQ2Fy5rP0viSRc7IA+7XrwyC9YaadlGoIv9ACZRouvn5ilzfnlPSw9i/2q3/wjWEj9YGVX2T5b83gRsWbP4eLB6pDDmfPxpBIsXuHwzk6D+dF3niZmMMzFjDi7ZRJLWW4JLmNHOTNp6MvhcaLFjvQw8zw7NAIhlMYiUxWsMDyHT9r96GZEogZQppwpuHIUqzY6fkP30WB3dOLnKDWQ5rUDkdzNhv4DuZZ5CS5XNjAMLFdQT6LJsfDxQE5/wM63vQEG2PhgIYs6/0gMrySZcB4D2oIcxHmwhVP1xnmkSptqH7G82XT5dtu5UR/+gpkvvRWk7xlz4u7jWzkz6erL+VlDn+E8aYFoTAvtIndbAdxLeU2m5zTj8yV4bPGV4NepOj2EoZhrsP15wgZhmGuDBtChmE6Dw+NGYbpPOwRMgzTedgQMgzTedgQMgzTeVplCEl5pLp9b/mhTbfBfrKsG4EbSp11TWlR3f2QqmNaSMwQxjaJqsv3hWiqoaoaFmbND/WZ1oq2CtRplQul8Ni7xFa+0cQMIe3qp7OdaxZmZWqhvaKtCMm9bUdwSvgARqXENnAcliHbxlQFC7N6i3Smx7vIQyrx8sn6lLFd6cXqTHDGF+7FUS9fGGYXgr3Mi1lnrjayQc/7yaKt+PNvN/BXdkZY3h7C55G8vzhyF55PFuUzf4ZpFBnnCJNFOFmYNR+T1SJSvvvAKLnTE7p49MJS2HqPJpBe+AcR5sYuomqva3cbufnJoq2v8GgzaqR6cz7Auw7UghOe+o5M/WReLGFhVsI3ngcR4VCNPT0Zhu2gVU6EWouh8pJCYvu56tpL8NROV0RbEyHPkOYHhbo/GnMYgGczMTVT26oxC7NeQp60kOdXzww8G2d6Um9xGOiT/YZbHEIeAvejAirVSMxAQ0VbE+mhx7kkb5Y8UPT0Rd6/IalbMtenNkNopePCrGKxQDxPSkiFw7zk9Mib+feNf2n5LSGWl+T9lkhFgqf5yNkOdZbh6wRn/BMRchXD5YZ8UJgLSjWELMxaBMOAu9LTw1jDEMRX9bOLoTrq2kvwNB9tF221IvLZg/FCb6lR6VUlussUJrZqjA0WWzkkvFdq4/HVCpxezYu/sJLYap65aicWPVQI3l+fpuGvTxQrc2P5VT/vYXO4hZmRF5E3oyDWVWMkDHNhiyfrJV5nkXIkklDXkTj2fIq9d7GPQlAGa73QqrGj/Vx17WojKzL/1vRs+aRV4+lJrK7eBf3mDtOnRReab3TXS65+JlDhXmUjEtqPoDlK4aFGw/36GHMtWH2mbQgDQnNPxrBL3Itu12AYxp/rzxEy2UiY25r8vsV7PBHPMHlhj7CFXA6Nac7Q8BAZhskEG0KGYToPD40Zhuk8bAgZhuk8bAgZhuk8rTKEtEhQVOigCmh/XHDkq9JN1/VRa13THsYLPb/2MH9+g6qqKtoOtNcx4aAAU5iYIaRNoOqFNi7fF6KphqpqWJi1ALQHkpSCXoofV6wb6u/03fs60ZnH8P+lgXVDp4hCsYhX+LsfwKzFH42mEjOEOxZmZWoEP7yLGs5KVwSdE/8cbWE5HsJ4KU+1eB1K8YT2h0LsKKMQ6vgew6KDDkeVsDBr3iNVCfEu8pCKrez2upZPtufFXdexeF51TaH2NnKnlwK1kTpOJ/NgIvMT7YPNg8ofnkz0LLcXVOf6WKG6pUk6XSRQ7eTdpzXtqOsqyThHyMKsWePZcZc9WtdU9lBsII84KYVOVn/QuMrn6fS0Z2Gv67R82tNLYz5qtxABGcHRJ5X5KPoaeYdlDY0nqykatI9kT1mJT2iRDKY4mRdLWJiV8I3nwFV2RVjXJKCClmlwg//KJ05KrbR7ejTqpERhVkt6biZwM7DoRrYEGhpTse/6WBDj/8WZwO/bXii+e4GUYrsU461AXLYj1LZqzMKsCWQtO308coqTileDhlRGvMTpjCRS8mlNz4lspzjhCjx6qBhO3qb8f8GV2VjZtyWuvr4+lix2QR8f9Lu1SncSQvLO1wmxUFldt5DaDKGV0gUzWyTMmrXsaJAkefIyh2ch4hpOXXivcpfeRkRyO+lpFjEENxbs7u8LGhthoFVdiau5Z7N9pgzu8CtyPhVzISqr6xZSqiFkYdYMuMp+ARoxLDy9HEXzEnjK6CEtdJ1dRZjVNrzzQHt3ZW4jacozMU50y0wStmkFWizB9Mrspx0hZghpYpxc46ir7LsosHt6kRPp1BheDUJzGlKiPnDRvzdqYQPDNvgKzuSzaDI+9GDkPBXoeNMTbAzvhr50a9pvpfOBlywDxnuQiwv6fhjmwhVP15kaamoJ/UJll+iyb7dysUKG5S0D7UGjD4SKs+zDIagzV12n5zMvNO/ZG//JPkQVHwP822su0pOGPFNIqh0/sdYdiN9TcwTrFCKTGVafaSRkXKPbg34mspx5tm2IbSsDc/tPca7/TMeWGQN6pl2Jm8nD9ecImQ6jPfuF/+Q8bY1Cz7RUg9WYZ5L37TaCYtoCn/nCRrBU2CNsJF3xCBVkNKwbq5kQ8hhH8NnghZ62woaQYZjOw0NjhmE6DxtChmE6DxtChmE6T6Y5QlqxCjYuZ1a4qI868slbGBjm53BhCMW+p9gJjlCOSSIMDamNNHxJ05bPMoxYGw1hvG1N2ajIx0PhJyslV7iDqJEPjyuMYZpD4tA4IqWFF3s9PwNSRwnadb2HwSx6uD7e7j42KyrftYHjMJQEc4UxTJOoZY6QPBF6AcjrkMe0TN028hrUsS+6IkfTYmGBYoi8b/6oeHbKsTadPnlFodKGmWYsvcgZ0WhY1GtWZzwT47nIU3ZNwXOl4nxxQcS52DPsA5kUeYyPzpu7wtgUMk2jtsUSm3inS2R0sloYYXQV20iaJiBblXCpjTrLfsF8BMPzAd6LOPukQmM+Q4tf9PrOsNLO8jJMSSQawoi3hFdepyNCgnjnDr2aVJFRUwC0YioTLk2kaNnpOBYayKQ8WTG8THRpjx/RkxzJXrIHWmVlBrChITBIoVJBQlgewRmGqRKvOcJM75qFRGHWFJFR8uCERL0Kq3x+Sb+06oovHljJIy57lbKTco1u1zWcpuFzQ206GSbUbXyMYQ+9X/H7Mygeeq2iXGrQbQlrsSg180OpbWhsxy0yGk7wSymo6ozh/ArCpdcsu+tXLciwVL5OcMY/+7UxbBdD4pMzrFxFcoYpznUNYSaR0UtF42Rh1nRcArK1CZcWLLsw3OQt5p63mMMfLF/i78VQZY+EaW/ZXAgSZejBeKHvqbIHArLJYewQMk0jwz5C+Ss0L+yNx94w9547mreKPteanpkWvZjowYng8x42h1uYiT2DXx75jKWpwqJ76Y6w3w9grPchkkKKrhj8+fVpCgt4UWUio2T8ukuPOpHkLLtApVkgLeuv+RSeXEwOStc3zfUaXms8rsy/DnWFMUxzYPUZhmE6TwPmCBmGYa4LG0KGYToPG0KGYToPG0KGYToPG0KGYToPG0KGYTrPj9w+E9kP6L3Pzk1Zz2yjjiHD/GwA/g9fH8hT4mmHegAAAABJRU5ErkJggg==;" vertex="1" parent="1"><mxGeometry x="60" y="430" width="322" height="71" as="geometry"/></mxCell><mxCell id="10" value="" style="shape=image;verticalLabelPosition=bottom;labelBackgroundColor=default;verticalAlign=top;aspect=fixed;imageAspect=0;image=data:image/png,iVBORw0KGgoAAAANSUhEUgAAAVgAAABHCAYAAABCm1+6AAAAAXNSR0IArs4c6QAAAARnQU1BAACxjwv8YQUAAAAJcEhZcwAADsMAAA7DAcdvqGQAAA3ZSURBVHhe7Z0tbyO9FsfPvbikJFqwKCRLioKDurBS0Er9AkGVlgZWgaGVivoFKi2KVLhFxUUlDQlaVFISfu85tmfGk9gejzOTTpL/79Fon51Zvx3bZ/w2//zn27dv/yMAAACN81/zJwAAgIY5OAc7uXuix9nI/K07jGaP9PT0pK+7ibnbNhO6k/QeZ9Q9i2wjdSf22Zt5APhiHA52RLNH4yisK9apddUBts3L7TVdXV3R/HVt7gAbaRfj3ivN2Ua/H8zNA6H08jQXXhIgBoeDfaHb6yt2FnMSX7F+nSvHcX37Yp6D7vBAv7lurq5vuda6zcPvw8inj6wfZNehvSTA1xDY5JKR7JQGy7nlXOXeDdH9M51Px9RX91a0uPpN7/yWnw7P1J0SqwVdcWuUEczl55zu6Sb/d6tF1lBlqpvFx6x5pJN3Rp0PO2pp7PxY3T9/Lhq7jDSm588qPcXkjp7GeawmnMS6EafJYzXV4bbyEMRvTwkdsplKJ8uInQ8p88UnvfaGnM81vS6WNBgP6Sy3qb8M4TryESqDTstZR28XLeUz1JYE8zy6znWebzg1DDJAXRLWYM9oOL2kz3k2yu3T5WyUT5EXq423vdWIz4ZT3bn4vkyl+5czvisdaUy9PAzHSUOamjnY5I472Qd3BhOfxB+Fcq49elX51FfWQcpxcnq9cdSyRmq4MLY9pXx9GlvzT5fNJMXgkkR/qJzaYsVxj8/p+WpBq7MB/eSAVWXwpRfG3SYqaTifVW0JgH2TtMm1WlyT9lUv9He5prPzH+p+JTKaMA735e+S1mfn3JN+8ShlRc/56OCFbu9fad2/kKEDXfZ5NBQ50ijgjnbZ5+TuTT5tJnRRipPTe17R2eBnhSNJDVdNYU+eSr/xG6T3vYjTYbNKa3OYPyab69c/ajQs3L5ElCElPSapTTScz1BbKlysWVbJ445DHHq+BguHDSLZ6ymC9fIvN3nDyy1d8zRSsf6kd/1/DfGDznnm+PFvy7uy7/1OPZ5Ajq0NC3sZwUtquBQsp+ayWT3XYBFRhkbTSyUxn4rG25JEr2cL9mgaThbEsFcH62VzlPTjnCedu/BOn8HNfB4d5R3GXKV1Oh+p4WrSgpMo2FMZdiYxn423pU30CB2AGBp3sO/s2WpNmx/euCvZa3bZ9P4Pt+V/9MHPLsxgQTYbNgeNve8m3OSu2PQxnaA/vrOmhoaXv7Rcl9c5o0gNV4sJ3XEBS6OzJtlLGbZx11GA1HwG2lIxCjdnh1NtMJrRDZdh9bb3cT04QBwOVjYKZFo2VTu42dpT7GbOy+293ljIpnaVDVnWxBb0ka9x6c0NvSHFzxbcZcY6LtnUKDZ19PoaZeEuP2lhbfjItG7+2itNM3UZONy1meZtPQsRCpfZjPMoRuubfxPZibPyPT3pDZrq3eq09Gaj1LKnEq4jH+n5DLWlVApbq2s6oOW86mQFABpoEXwp0nnLx5gAAMdDN9ZgAQDgCIGDBQCAlsASAQAAtARGsAAA0BJwsAAA0BJwsAAA0BIH52BFSam9c5vpyEcQ+VnJ1EPsHWOftpa0xHZHYjoAFA4Hu3Gw2lyxHa2rDrBtILidjrSZQxXj3uoveEMAC4eDla9o5NvvOQS3wV44ZDHusqziglb9JiQswbEAwW0hWny5OtxWHirZLJ+2pw4dSm/DZoo1d/L7gF3e+Zlf4Hs7L7bNQnXkQ+I7YjHu0Ywe1aezhdykKsNgGWEbcAokrMFCcLtuuBCj2U2pfFe5swunN7kzjkCezV/ZtYojuVbPwvjFsf22DtdRmCMW4xalrvWS/maeNBOzidTQBcdP0iYXBLeF2HARlAShM/zp6WdcD5mik1KfslSrKnDWX8jWUULWfo5djFuNZGX9dUw8OucXAfUosirAkbPXUwQQ3N5GRv7qZ2JMnPlILJie1rvt5zqOP2nAU+llPpRqgVY1amvQMTFuHi7TdCojbBkV8+xD5e+DXE0PnB57dbBeTlxwW23yqPi01F4x3XWnJ6Ovfx/8RyZTOB0SOUfrDdK6kHUdEuuh6TK8f9Ka/3udF8s6etmgIy8j8OU07mAhuL0L1oshlF42nbcczOYpj/oi1wFbRwlZp3HQYtwqL2c0vMl+GNLE2ZZgOjg4HA6WG4k61zdVu7QQ3M4IhctsVldwuwinL7vsgfR42vtsLSuUnlXYxU/I1m0IWafls1ti3CYveXvfPHUDTh2oaR0i6niQrPtZU1N1r3xkCADwtXRjDRbUw7F2OPo54HvYXAGgS2AEe6Coz0tL69GyJmuNaAEAXw4cLAAAtASWCAAAoCXgYAEAoCXgYAEAoCUOzsF2VW9WDubn5zLrHoLvKHu1tYjzPGYH9g+Pyd0jtWWqcj3IxxCOD2gapKt97BBxONjNw+/6ijX4qVYOBLd3QM7wivLZ/eFJ/El7l/fp+6d8u1z8vTHMV3uFSM0D/ZEPaNp6GW2lB3bB4WDl6xT5/HIOwW2wB/iFfrMHLYWWEB2Jtwv5gq9Pw6nWoq0rxhVCzjfTxifJSiDoY0g3LQxkXOmBdCC4LcQKLEeE28pDJb6y+22tY/bnJWzrjXBRtpan/joKp1eB1NHlp0egWuen65+fSvmzZhZd7ijE5qKl6/g6z/U1n8LUU3SbtgmkB5JIWIOF4HbdcH7CZS/bWspeiJykiE7L09HsFzttHV+WXjYS8tu6Kp/+9KqYXBy2OIo414s3KfNKtTUZzTa1RDCaXbKjfHY7OyN6k4nzNEEwPZBE0iYXBLeF2HABQmU3FLbm6egbe7zed/6/NNFpqaWX29+WTRoU3PakF2ZE33se3d4DQZYIpNg/zrkg1t93Z0Q/B2eFqPoWWrJyW2RdRG34JVg7E1XpgRT2eooAgtsO6pZdXkqJotOq68jU0grnXNZxUZFPb3pBdD1tUpzI4BE1P88U3Z6edtyp3yj7U4O78Q+/G55Wy0uN5wnZrzq4UNKgsYObKiLSA/XZq4P10rQQsq2r6oRHamYanF/ONcBNUsMFqFt2dnSalLxM6E6JcxdLONGnHhqvI8FdT9lyk1qKsDZar652dGLK8Rtbqau72g0xSyc/+O20/mxmaHLoSzVdpXEHC8HtGoTKvgU7Ry68dIJd85KP7HlEd5PZ7EsEt33T3Aiy0WiTx5W6EieHqT4q5VtekY0qTq9O24hKD6TgcLCyoSHTp/L0LHYzB4LbbLRowe1qEeis7E9PepNJP0stg5yhlBePCTM9p2Vus5Ctq/OZiqwrnw1/1Z+qq5cM/xm11htJR+JU0pOrN7Z6APU7bCtqYsk0Kj2QBNS0Oos47fIxtONElzPlKJY6HtWzj5ntztfHGXdUSuKUo3G7v+RwNKtN4GA7y6k4WEam0XV+jSE731w6w7sjhxIno85aD5aNxgnaAQ62s5yQgxXEGXk/OAAFMuK8oLcOb9CBAjhYAABoiW4c0wIAgCMEDhYAAFoCDhYAAFoCDvZoMQfOSwfc9Xld3/Hc4hNVvhI/YqhCjheVz+u68hlDXLjm0gOgPk4HK40y72jmqj7E3iGyr2dsJyG71OhUQSAavl+2nT84Nrwj2JLkIF9NfLWzX9a07llqTyeHfH3Fddf5Y0+p+dx3OADq4zymFfpKJHvmElcOPeOnPDVLFWw2YWNFhNXBdfkMtEcDjlWVo3TO0p+XMPpsqsmiZNLKz8YzJcZSdVZRwoREtUP59KenDqJnDxx5PH9eEI1d6WlUeNF2Ldk6VPYQm/nUL2+pE28+1QF9KufLulcSd9/KR0J6THUb9OGzi9xvQ5w+tR4YZcO8NeV2CcWZ2qeBJmkNNiSu7HqmK7AdweYQ/26f6WNDeEb/UkA4Lz5CItej2U1JrDpeqcknqh3OZyi9qql+f+wW8Q7RjEh5WTDdm08jLmOLSY9E2cR8Lx8qX1J6hpQ2GLZLs+L0EmtqPXBAdq5pAvSpfRoEHKwY1V6DLdlN3lSmMWyJKzue7S7YbKZ1VgOM44HePob0y857TF6cRIhcV8bhximqHZPPptJrouwujEqTU8Q7iBGlyT2siEHLT0VVxJOcniHYBl347ZLRpDi9zLzSRN/ZGe4iQJ/ap0H8GmxufyYkrux6pmhFsLmahz+v1Nv8XY0Uge8KkWsZlajRoHkWNarwIQ1YCOSzsfTeP6lyS6stsfEAqiNnnVWUo2hJf7ecQ7PUboMt2sXZj5LT202APrVPg8QlgiQ2RwONCDZHIHJxvUuayS+tZCTnhd/01ktHXdaak/xciL6vpf2SnV4mql2Rz0bSkzijOkq47I1jNG/l3ah+6dTu5J3CbZf2SKmHlgTov6pPHxD7cbA7CzbLYjq/WZPWd2TK80GDgf7NpOS8mA4fJ3Jd1aB9cDl59CAjhnr5TE3PxFnlvGqV3SJCMN2PnlL3vk/o5+AjTgx6p/QSSLWLobY4fXJ6LQjQx7TP7LjkCR+P9J4i2GyY2Y5jtquYLZDbhJ5pJ2ntODp2Kt3hBBM2dsfUnCIoftLYhJe1JPVm9uclDDci5w61/glx+35cnL74Mjv48rkdLvhMUM/fA+mFwrnjLefVg71zzXHNPy/pRp3scNhMyNMTXPVekc/E9KrboA+fXSJ+Vn4zbFReEuuBKZ2iYEJ1nz1L7dMK1Q+HPEPK+t3pATWtL0U37JORJATgxNjfGiwAAJwYcLAAANASWCIAAICWwAgWAABaAg4WAABaAg4WAABa4mjXYEPKSak0FWf6mUsAwOFA9H/Up3eMppSGcwAAAABJRU5ErkJggg==;" vertex="1" parent="1"><mxGeometry x="60" y="620" width="344" height="71" as="geometry"/></mxCell><mxCell id="11" value="" style="shape=image;verticalLabelPosition=bottom;labelBackgroundColor=default;verticalAlign=top;aspect=fixed;imageAspect=0;image=data:image/png,iVBORw0KGgoAAAANSUhEUgAAAgMAAAC+CAYAAACoEAzVAAAAAXNSR0IArs4c6QAAAARnQU1BAACxjwv8YQUAAAAJcEhZcwAADsMAAA7DAcdvqGQAACNmSURBVHhe7d2vc+pM28Dx63k1BsMcUYVpTRUaxZGdiepM/wFUZ7DIDhLbmSr+gc5UMXNkq9CommJQR2Ew+Pvd3WxCEpLNDwLlNN/PDM9zF06STbJhr/3B7v9+/fr1nwAAgMb6P/v/AACgoUoFA/3Jq/z588d/PQ/tu1FDedafvU6kb99BnvxrNnz2r3nqJa9q+HyG+6TP7Vn9LwDgkh0EA0HBE329TvwiY/H0IHd3dzJd7szfOD19P7zOUqbquo9m9s1j9Sfy6nVk+fIkC/uW74hgTu/zYNuZvC074tUYdCTzZ60BEgA01MGYAf1lO9hO5eEpXkxE6RaCcftD7mornXA+fZm8juV6lbjHuqXAE1mqwrt3vZLpQzJQcPH32d6spdvZHmxbJE9VogOQ8bWspg9S964BoElqGzPg7kKwNc7Y61X8BgddkETeL1TV87eJ/lNzfPOG/kzvO3rMaFN14niFa62Jcwi3yzueogvayLZBS0upa1bmeC7De+nJUl5ipafa10AV4ncjebfvlNGfPJp9vn3aNxJmb0uR3n1KGu05FLrnKRZ/ZWP/EwBQXW3BgKsLYfjsSXc9N5/fTZei/8V67tfmhs9j6W3sZ3dTWXa8sLCsriW98UC2U7vPXVcGYQF8L/Ki37efqWLsMfd4ugD2pLOcxrYbh4VY9Hh3Ml93xQs+MzXujiztZ/oV1JCzr1mZ48XPL8/wtiu71Xui1j+TUamWgAhVO3/sSUqXQ8TiXVYqjbcVy/xMw1vp7lbyXinhAIBAajDQ6o33NVL1qlpx8w1FlT+y/rRdCqZgEOlc6cJLf7aWedjdsJCnj7W0rn/bWnB1QbCh9/muDthq35j3F0+jSJNy/LNMujbdWstHuKFK54sKarq39u/o8VTR+rnWJ6j+SxXqA1X4Ll8ixyyg1PEKnoPRl6uOyOZvmcS4De9NJJBzfgv5q6rw/j2PUkGIDnZKdTfpQMnmTa8r64+KQQwAIJQaDOzCGqn/Om5owJdsVeHfDaqF/d9y3drJSlfn+lfSEVWLjgQe+gv+pIKBbvY17rXsBzl2W3UmJbTa6n9upK12X6nwLXu8Qvz0lJa4ZmG3xPDZDG6Mdzmk+1KZoFjAkkcFRg9B3pzKdrDvdgEAVFNbN0E2v1YoXc8vSMbJmuRa5pHAw7yqNlnnGsqzOf4+2Cn8ywhVuMeKspu2OMtVVZgHgVAlZY9XSMX0LJ7kIXp/7kaqTq+upm7yafVkHAQJOpCzfydbk25UFLLb1h3elGkVAQBkOX0woGqVA90VEClMwlHlti857F8vKWx2VjXUwjV8Jaypm/7uAtvNPlXIEu2XD5r/3+zfUSrgUIWi7pcPCquuV/K39qWOV0ZWc301s1E0QFCv+Vo3K6X8DDKre+LIAYRq+3t1/8IuKABAJak/LUy21OtuA1VZF/3zsYOyUw8MHH05Pps59qkLB90HHN92/5mDbrpWtXyzmSqA5qtr8czPHf20tD/2BVL0p5Dmv8ODrf2f0hX6maQuuDxVRFv23IqkP37MItdT79d9vKzzy2V/Qji3tXvf4TkYumAv00qj961/lZDcxtyrtnzEjqnZcwzPLc9hOtfzGudfAICGOv3aBGkFgXnvp/w+/LBwvmx+eg/mGTihk80zAACoxem7CVL6uvu/r9V7G6lxUDsK83+ZIL1HO8/DaelWi6KDDAEA3+P0wcBs5P/uPhhkpl7j3ibRTI2z0gMC5xsVD9Q3TXA63aev7vXJBoQCAOrAEsYAADTcGX5aCAAALhnBAAAADUcwAABAwzUuGNCj24OBjNUnu7kQ+nf94cDMYBVIzU7mU3hFxkDV7ZB0efmMe1te/jXTP5vV97jWW6yf64u8T/pnyTWf68noe1dysreGSwQD/s3eFzD+6yfN/e5aXfHfojK71zWT7vgzAF7mnA36y7KJawf8nHyGLGYytU7ajJtH0HOw6FVOXauAooCZvC074hH8Fpbxa4LzT0xzbqVm7btEmbP6XZamTzj0z+cznNGlf+/66ft3Jljj+6eMEsGAfu9R5OVD2uNgmly95kBQGOlmmcj0ucZOltMH+Xvv35AXeQyn5d1PI+sfK5xiNjY1beKz2PFc2+VL/5JOnENsOl5XWnKYKYD3V2Y/XXGJ4yXPL3VaYXtewUZp1yQjLe7tstKi30/PE1/R/UXFts06vyrXOjst/naJfUaudfCFUSh/lpyiOT2fVdmn+/xc55B5b3VeuN3KstNTaVHP6nwl115PWmF6EumMbHuaa5Z9PCM17/rTemdPz52TlkrPQ9Zz675HuXRa0qbzzjoHUyHwF14Lvqf1ffHMWjBFjunvt3jw4f/79sdcxEucn7mOie+jtPfqlnH/QpmVJnsPD+5tc5UcM9CS3ngg26lulp7KcrdfTGf4bC+sbrKeLlUYoJ+hfdN1qzf2H1DbdNod+M03w2eVyTd2O73Pjhc2K/cnj5HP9Gt/Q13bVaMzuicdlZnCfUpPxraDzJUWJ5NZO+p5DbYLFmpyHy/r/PSXlOm+MQ9AZDInu52zeTozLe7t3Nc6PU8E+/PXLoosiW0fvKr33S2aFn3s/SJY/cm9+pIO9udf68dIfsnKn3nbVVF9n9nnp2WdgzNPdHumIJ2v1b49/aU5l3XrWn6rDfOesbqvmfN4jrzr4kxLpefB/dzG75H6LPIdmUevAqoXOEueVeY5mMnD1uo+2NlE1fkUDwSq63opedAurhasVK+ZVU3Xn6dLS5E8YRfDi6YL6UoPINwX8NHlY4fi33d7280NSKyOp6NZWxAs3leya7XVHvR2KvOGkdlCnj5U5r7+bb5UjO6t+ldJBbYra3ivIu+1fISZyZ+2dxc9fmpaXNQXh1ltMLpks+U4nuv8xH5JmRUCTVRuH4Tw32ZxpMXJkRYrPU+4VL3v+aIB6OxTXaPOldnn4mkUOe+UdKbkT/1p7nYVHLPPrPMzMs7BSW3zZm+DXhUzuCNPiwL3qNZr5spnVfOuKy0V9+l8bn3lnwcta2VP1zkos5EKWER69xNzPuv5aQMB7SAPmmdV99GrgDAsdfX93MkyyFyZdA19Pz4tfOX29Re9f1krtc5kVOh7szlq+jWBv05+mBH6v+W6tZPV+/4uxSJesz7+SP27K+lEa7f6FWny0dF5dCrjsJaQs11lu606k3SZaXG6kXYr/QE3so53kvPLSUuWU6Sl6n2vIigQdXNh5HhhE7CVlj/N10TOdpXUuc9IgZ95DlUUuO+1XjPn8SrmXS0zLUfs0/E9UZ2fnlQ513Px9CKmq2czD7tKXMLWxT9j0/WgW3j8v6O/SCroa2tagTUTEAZB/PBWuuuPAoGWLZSTr4OukqTi9+9LFU5Fg+0mqykY8KMv6Xp+pjL9WEUj7kjtNiUj7NfMn8tGZdp9weDerpJkTSqxyFJ2WrL4QVIm5/HqPr+ctDilp+U4Ve97SeqLe6ZrH7ZvNThWapP5garbudS8z5MUTIEqefCY88vKZ1XzristRzwPOd8T1WSlJ/966u6V69X8oBsnS9AF4ndjqCwU7ntf4y9Mn3uQByNN8rqLIGwpdlLnZ4Oc2Cu3ZaD4/btRUcNue7qn5KeoJxhQketAN/HZzKpfRfrzgswT7ffMFrn5pbYryPZ57fv3gmaofdPpXtGM6Dfpdb2U37s6jneS83OlxeXItJioPNq0rFW976WoLxlVs9S110BYi1D59bFEbbzqdi7H73N/fmW/vws58r6XPj/n8fLzbtgMPHw+qDmnp6Xi8+B6bo+S1Zzty7yedpzAx9PsrKuR+uy5h3nQ79rpDl5l0Nl3P7lVbRkoev+yul9sEFLrd+y/LfFrAnVzo6NWrSKjdv1RrP77gWBkZzDyOD1AODxm9HixtMRGfmZt58pC6ee336/OIJFRwuH7KduVGIUaG5ms7NOZdTwt5/zM4JnkSN2888tKS8q11hznH90ueyS3eSe+bcF9xtJS6Fq7r1f8vNeyXHakF8m7WfnTtV02932oa5/R88s+B0daPm/D0es34fY3Kk/qAWK6lph9zPqvmVbmHkY+UwWkHlVvPtktZb66Fs8eLy8t6fvMex7c3xPu58Eh9ZlOpjFyDvr+qS/d/a84/Hzg6b56c//897L56S37a4LodYneH59/bfQAy2L7PE5mngiYvMGvCYqoZ9XCtAtu3ruWVaFMCRzr8Iv4Z/np54fgHv/b87voQjYIJu1b38hdEUVUPd0EKX1m/d/X6r2NHLTOAABS+L9MOG9Tf738n5gXGTh4errVQM8Q+UIgUEg9wcBsFBv9rV/j3uaguQsA4GDmDtioeCBvAN1l0TVw/b1vpme+iKarodzrMujhyEHlDVJPNwEAAPhn1fTTQgAA8K8iGAAAoOEIBgAAaDiCAQAAGu5yggE9L4H+JULuNJQAAKBOFxIM9GXy2JPNWq/EBwAAziklGNCzYO3nCzisqesZptT7Nc7pbNavl6W8fdo3AADA2RwEA/3JvchLsGDEVBXRPXk85XRYfb3whsjyhckhAAD4DgfBwOJpFJlK0l8ZKr4WtF1lqqZZpob3JhJg/QIAAL7JYTdBMJDPvqIrQlWW2OefP3bZSb38JnNHAwDwrRLTER8uP1lqCc6S/OU27R8J0WU5AQDA6aT+mmATLDVo+vOTLQP1DSCcjYKxCfY1X5v1yKfqvwkEAAA4j0QwMJO35U66nm3OH7dlpf4GAAA/F6sWAgDQcKndBAAAoDkIBgAAaDiCAQAAGo5gAACAhiMYAACg4QgGAABouEQw4K9YWOOChAAA4MKdsWXAzlxoXwQcAABchvMEA2ahIk9kvp96mOmGAQC4DBnBQLQWb1cYDJVfm0AvU7xh4SEAAC5SajDQ9Qaynfo1+Pm6K95RbfpDue3uZHv1HHYRHAYYAADgu6QGA+v5g9gVjGX2uVbRwW2k8J7JSDf1F63m96+kIy3ptT/DLgITYLxOpG//CQAA+D75Ywa+tnL8uoVrmUeCh9nbUnatttzYvwEAwPfJDwZu2tLabeXL/lna4q9spCNXNAMAAHCRcoKBvkwGXdmt3sX2GihlBxDO5HPdkt79/t/rAYWt9af6BAAAfLeMAYTBQL+xXK+m8hAMIKhoNprKsuOFAwg9mRcfcwAAAE7qf79+/frP/jcAAGig/DEDAADgRyMYAACg4QgGAABoOIIBAAAajmAAAICGIxgAAKDhCAYAAGi4s8wzMHz+I17X/qGsWc4YAICLcf5Jh/oTeR1fy2q6XxkRAAB8n/RuguFzOHWwfr1OoqsMlV2bIMEsXAQAAC7FYTCgAwGvI8vpndzd+a9j1yaIGd5Kd7eSd1oFAAC4CIlugr5MXutZnCjO32+v5f/FmAEAAC5HomXgRtqqwN78rbvavpCnh6ClYSrbQbLrAQAAfJdEMPAl2539z5NZyPtqJ632jf0bAAB8p0Qw4BfUXe9ZsocHHjmAUG1/32vJ+pN+AgAALkHqTwv7k1cZBx38ym4ZHUOggwFPuuu53BXq+I+PF9AYMwAAwOU4/zwDAADgoqTPMwAAABqDYAAAgIYjGAAAoOEIBgAAaDiCAQAAGo5gAACAhmtcMKDnUAhXZKw8cdKFiK0u+Sr7GZ7txFCvEyk36XPV7ZD0o/JZAcPnnzjFeP7zoM9b3+Nab7F+ri/yGdRzxtR8riej751r8jwkJYIB/2bvCxj/9ZMe8sXTg1kjYbo8+bzLJ6Yyu9c1Ezj5az48SK1rS9XkZxYS+X5OPkMWnbe9zlKm6j7XNolafyKvetXYlydhYddjzORt2RGPik1hiWAgWFBoKvo7TM88WPsSxqhH/0o6spb0WZ1nMtIBwkPZL5Sq2wE/kft5mI3qflZUZeyxJyoSuMjA/l+jA/L5piePLIpXSMYMhP4UwvGljPV7jyIvH9Iee9I1761lfjdSj4ymm2WC9wM7WU4f5O/9Hxlsp/Iij+E0x/spif1jhdMVx6Y5TnwWO55ru3xmyuX2R2KbxDnsVNQfPuyutOTQzX6qFh/YT+9c4njJ8zP7lIM0xKaSTrsmGWlxb5eVFv1+ep74iu4vKrZt1vlVudbZafG3S+wzcq11Da9w/ozdo3zp+azqPl3XJfFZ7HqmP5t3dy9mm/bHvma7T++X+qzE9VT2+bqm80vmw9S8K45z0G/kpKXS85D13Opjua5ZDp2WwTblWmWcg25FGOvgIbjuehd/xOsWPaa/3+JL1vv/vv0xF/ES55f2fZT2Xt0y7l/IXKO2fBykwd7Dg3vbXCXHDLSkNx7Idhq0HnRlYKOu4bO9sDqSni7VV41+hvZN163e2H9A1ee66bQ78Jtvhs8qk2/sdnqfHS9sVu5PHiOf6df+hrq2q0ZndE86KjOF+5SejG0HmSstTiazdtTzGmwXtLS4j5d1fvpLynTfmAegK17QnWO3czZPZ6bFvZ37WqfniWB/87X/gAbHCx68qvfdLZoWfWx1fcL7d6++pIP9+dc6WmPIyp9521VRdZ9Vn4esZzOf63mPHs+/z4Gq5+fMZ4686+JMS6Xnwf3cuq5ZnuFtV3ar94OgKfMcFk/yoC58q/fojxdS51M8EKiu66U8Y7NPFRZ05Ta4DIo+H1l/ni4tRfLE4l1W6h5E04V0pQcQ7gv46FLEQ/Hvu73t5gaIdK4iD4GOZm1BsHhfya7VVnvQ26nMG0ZmC3n6UJn7+rf5Ija6t+pfJRXYrqzhvYq81/IRZia1zxf1xRk9fmpaXNQXx0A94GnNfo7juc5P7JfUnfn21Q++fRDCf5vFkRYnR1qs9DzhUvW+54sGoLNPdY06V2afi6dR5LxT0pmSP/WnudtVcNQ+Sz4P/mc5z6ZD6r1Vta1B7Hhx1c7PdQ5V864rLRX36XxufeWfB60vVx2Rzd/DxDiv52ykAhaR3v3EnM96ftpAQDt4xkye1H30KogOS119P3eyfMtLja6h78enha/cvv6i928hfzdp+d12AWXk4Saq6dcEX7JVXzBhRuj/luvWTlbv+7sUi3h1RKuiV7/fO1K71a9Ik4/p89GRp/0srCXkbFfZbqvOJF1mWpxupN1Kf8CNrOOd5Pxy0pLlFGmpet+rsIW6LsBeI8dLdmGk5U/zNZGzXSUV91ntech/NmtX5fyc51Ax72qZaTlin47vier89KTKuZ6LpxdZdnqmVaVI2Ra2Lv4Zm64H3Srm/x39RVJBX1vT0qSZIDoIVoe30l1/FAi0bKGcfB10lSQVv39f6gEoFpA1W03BgB99SdfzM5XpxyoacavagCMjmEE65v25bFSm3RcM7u0qCQqOwE1boo9ddlqy+F/EmZzHq/v8ctLilJ6W41S97yWpL+6Zrn3YvtXgWKndKAeqbudy3D7LPg/HPZtVHHN+WedQNe+60nLE85DzPVFNVnryr6fuXrlezRPdd9mCLhC/G0M9IuG+9zX+wvS5B8FRpEledxGErVFO6vxMIJJ45bYMFL9/Nypq2G3rD99+mnqCARW5mmZDm1n1q0h/XpB5gn5dt8jNL7VdQbbPa9+/FzRDvfk1xJiiGdFv0ut6Kb93dRzvJOfnSovLkWkxUXm0+V+ret9LUV8yqmapa/yBsBah8utjwdq4VnU7l+P3WfB5KPBshk2ow+ditfjFX9movBs2NqiaZrKxqPT5OfNEft51nUN6Wio+D67n9ihZzdm+zOtpxwl8PM1Md4UE4wfOwp572Krmd+10B68y6Cwlt4fAqNoyUPT+ZXW/2CCk1u/Yf1vi1wTq5kZHrVpFRu36o1j99wPByM5gtHZ6gHB4zOjxYmmJjfzM2s6VhdLPb79fnUGCUbJK+H7KdrG0uMVGJiv7dGYdT8s5PzN4JjlSN+/8stKScq01x/lHt8seyW3eiW9bcJ+xtBS61u7rFT/vtSyXHelF8m5W/nRtl819H2rbZ+y6ZJ+/69lUiTEj0s1mu6XMV9fimbToXxM47q3Jf3anKh3T7UAe5cXss9r5aWXuYZFzyL/W6fvMex7c3xPu58Eh9ZlOpjFyDp+35h7sf/mid6Hvtf8rLnvZHPz0lv01QfS6RO+Pz782eoBlsX0eJzNPBEze4NcERWT8tLCktAtu3ruWVaFMCRzr8IsYCs/mP6Rs4XyJdCGrf21wGXnLXRFFVD3dBCl9Zv3f1+q9jRy0zgA4H57Nf4j/y4TzNvXXy/8Za5GBg6enWw30DJEvBAKF1NMyoBw2Rep+ymTTDHAqtAxk4dn8x+jugtTJhy5XmMeCCZH8t7+RbqG4lU/yeWG1BQMAAODfVNNPCwEAwL+KYAAAgIYjGAAAoOEIBgAAaLizDCBMTgyhRSfKAAAA3+dswUAwOxkAALgsKd0E+vfargUj9O83mdMZAICf4iAY6E/uRV6CBSOmspSePP6r02EBAIBcud0Epr+/6EIbGQ7GDLA4BAAAF+MwGDCLmNgVwAK1Ft525asNAQEAAJcg0U0wlGcVCMhyGq4rPV1WWkzewV+HGgAAXIbUeQY2wXJm/Yk8Jn4SePQAQrvP9SetAgAAXIJEMDCTt+VOup79JcG4LaujWwYSv04w66gzxwAAAJeCVQsBAGi41G4CAADQHAQDAAA0HMEAAAANRzAAAEDDEQwAANBwBAMAADRcIhjw5wRgQUIAAJrj+1sG9FoIwYRE6kUgAgDAeX1zMNCXyaM/I6FZC2G+lq73KqyYDADA+WQEA3b9AfN6Vn9FHbk2QcxCnh4e5MkuhSCzT1lLS9o39m8AAHByqcFA1xvI1tbW5+uueLTdAwDwY6UGA+v5vrY++1yr6OA20jowk5Fu0j/BSkPDZ0+6u6W8sYgRAABnkz9m4Gsrx65bmBwkeNj1oP/Jq3jdtcwfniToNQAAAKeXHwzctKW128qX/bOSxZM86NaE8DWSaOVfBwLjnshyGn8fAACcXk4w0JfJoCu71Xuktl7nAMJoIBAZSAgAAM4mYwBh0Jw/luvVVB5OVkoP5b7XUv/fkt44OKZ6vU5UGAIAAM7hf79+/frP/jcAAGig/DEDAADgRyMYAACg4QgGAABoOIIBAAAajmAAAICGIxgAAKDhCAYAAGi4088zoNclGPdETy0Us1vKlHUIAAD4dt8y6dDw+Y94Mj/JyocAAKCc9G6C4fN+amD1ep1EJwc+dm2Codx2d7JknWIAAC7CYTCgAwGvI8vpfpXBOtcm6E8G0l1/sCgRAAAXItFN0JfJ6ykXJ9KtCgPZskIhAAAXI9EycCPtlsjm72lKatMqsFvJO4EAAAAXIxEMfMl2Z/+zdv5yxesPfkEAAMAlSQQDC3lf7aTrPauiO0u1AYR+q8BSGDcIAMBlORhAuHh6kOmyI17mrwkq6E/kkVYBAAAu0rfMMwAAAC7HQcsAAABoFoIBAAAajmAAAICGIxgAAKDhCAYAAGg4ggEAABqu1E8L+5NXGfda/h/r0y9BfO7jJemllgfbU63TAADAZTgIBnQB6HXtH9ZuGS8QTSHd/jhb4Xzu4wUaFQz0J/I67okNvVTsdSfFL7eeldIzM0xOH6ITS9n37V9qrzK/G8l57yIAIE9qN4Eu/IPli+tewhiXqC+Tx2tZBctWz9fS9V6l0MSTesnrP7eyXSYXtdArYHqiSv8wH83XXfFKTmMNADi9048ZMIVFYq2D2Hu60NhPffzndaLeKcKukZCyna7R6ymUdYtC8HmxMiielngLSSKdRXaoa9vq30anc9ZpO7geqVzHS3x2sL+y60cs5Okhsqz07FPV4VvSvrF/Z1LHGWxlqmr77/adPb0C5k62X/ZP5et0q2ABAI5w+mDAFCxduY2US/2rjsj60zQX9yf3Ii9B7XEqS+nJY26VVBeGnnTCFgx/u3Gk8Gv1xn7Xgvp8qmqt3UF+kDF8HktvM7f71DVZ+4ES/0wdr+Plr9mweJIHtZNW79GvZasgyOsWayp3Ha8/eYyl8+7bmt5nMop1C0TN5HPdkt7YBirB+hSfdBIAwKVJDQZ0QbqvdRatVWeZyZsujMNooC+/r0WWdvnCxdNoXyO1qya28qqkw3vptdbyEW6oarYvS9l1b/c1ZN1/bTu9F+8r2bXaqq7qoAqrgS6oUzvKh3Ib+0wd70MV8te/cwMMmY1UMCLSu5/IZNCV9bxIwV3geNFzPaAKaR0kFO/0jxk++/3/x64wORupNMzFX/Rq7HdDVEwSAOCECo0ZOPYL3BTGQeHV/y2qWJD3oBy3TelB4BH+eiDPbiuRFugDu9X7vsaqa+jH1J77V9KRbmwlxz/JUZYOi6cXVbPvmdp8oWuZczy9sqTpf7efHb2qZITuWjGtF5k1/uJMl4jpRtBBwUZ643rTCgCox+m7CbTFu6x2fldBXzcLhAX1UJ7HPZFI8KGb9AtJ1vRv2uFI+NPQzfv7AMm8ChaYusn/ejUv1rUQch/P1LrN+3PZ9Ma1FLL+Tzn17aih28G0tOxk+WLTPBuZgYmt3r2jRQMA8B3OEwyo4kA3/3euhvL7ehNp3vdt/tq/bb9yLjsOYRAWgH3TBL9bvlUvxBZ/ZRMZ2+DXkP3/DoKZSiPh7TiBj6eZ6cqQYPyAS6njfcnhuLyyAwijgUBkIGFU0IJTeICnFh+EOLxVFzSnRQcAcH4l5hkQmbyO5aCsLjwZkC6gPOkm/r1fCIW/bpflsiM9M6fAV87x7P78d2PpqDw/gP6VQ3Dyan/T7UAe5cXuRw9ajKcnOf/CAbu/6G/2/eurasxZhW4o63gp9+HgHqRf62yJaxmIzhuggwE9D0FsLoHDNBrBv4leTy22LQDgUpSagRAAAPw8Z+omAAAAl4pgAACAhiMYAACg4QgGAABoOIIBAAAajmAAAICGK/XTwticAIV/w17duY+XVHm+AgAA/iElJh3aF4imkDYTA52ncD738QLNCwbs5EOlJgeKT1gUzSvxCaV80QmYAACXIbWbQH+hR+fEp2bcAHq2wD+3si26NoSRXEraXychOgtyMi8RCADA5Tn9mAFTyNg17QOx93SB4q++Z16F577XNdL07XSNXi/co2umwefFpumPpyXeQpJIZ5Ed5p67i+t4ic8O9mevTeG1CdS/N6sLjuTdvlPIwVLSyeWqAQD/gtMHA3ZRoWj50L/qiKw/zaJC/cm9yEtQc5zKUnrymLuSjy4MozVSf7txpPBrqRqq6VpQn+uVELuD/CBDry6olxkOarHztf1AiX+mjldkBcKUczeL9dhzd3Edrz95jKXz7pjlmY2ZjKquGZBYeGjxdyPSucq91gCAy5EaDOiCdF/rLFqrzpKsLfZFr2K8fPOLr8XTKLJgj7+6YSu61F2agxrpwqwIuOve7mvIut/btkkv3leySy55nGSW3F3LPLUdeyi3sc/U8T7W0rr+nVPoJc9d72cXnnu2AseLnusBVbjrIOHUbfI62Gn15D5MyFCeEwNOYnnpuIwEADiRQmMGji1TTGEcFF7933ItK3kPyvFgaVz7Sg44y5SzFO5u9b6v6S6e5OGY2nP/Sjqqhu9F0hlbjc8hdu7DW+muP3JWK1Ryjrd4epD5ev95bgvFyaigY76Wrhek81Y+dXPK5q+59jqd+3zkt24QEADA5Tl9N4Fm1+fXFeS+bhYIC2pVk/QX0Q8LDd2kX0iypn/TloJhREWqph4WbPZVpGk9cu66i2D9WTQkcR9vNgre9wftfVtAMBtF0jiSr6uOitPSwjS/1QcAcHnOEwzYgqBzNZTf15tI875v89f+3Z/IY5GWAdsXPwgLwL5MBl3ZLd+q1/4Xf2UT6d/Xgw/Dyrgt0L1KtVq/ib87eJVBZym5PQRaqeN9yfagjC07gLCAoAXHMcDT/JTweiUvaU0f9t4WD4YAAOdSYp4BkcnrWA7K6sKTAekCypNu4t/Hf4u+luWyIz0zp8BXzvHs/vx3Y+moPD+AHukfnLza33Q7kEd5sfvRgxbj6Yn+pt7NT6se8Fg8TVnHS7kPB/cg/VpnOzyWEZ1vQAcD4560YnMQJLaLHS+5z50spw/5XSQAgLMrNQMhqtKF80C2FIYAgAt0pm6CZhs+61p6gYGDAAB8A1oGTijscik1vS8AAOdFMAAAQMPRTQAAQMMRDAAA0HAEAwAANNyPHDMQm7ug8G/t3eraZ+U5EAAAOAmR/wf3ts5UYfDj2gAAAABJRU5ErkJggg==;" vertex="1" parent="1"><mxGeometry x="60" y="810" width="515" height="190" as="geometry"/></mxCell><mxCell id="12" value="Por lo tanto se comprueba que el programa funciona correctamente de acuerdo a lo establecido por el usuario mostrando &lt;br&gt;buenos resultados para todos los criterios establecidos" style="text;html=1;align=left;verticalAlign=middle;resizable=0;points=[];autosize=1;strokeColor=none;fillColor=none;" vertex="1" parent="1"><mxGeometry x="30" y="1050" width="670" height="40" as="geometry"/></mxCell><mxCell id="13" value="Resultado: El sistema presenta mediante consola un mensaje donde el usuario debe ingresar los valores los cuales se van a calcular" style="text;html=1;align=center;verticalAlign=middle;resizable=0;points=[];autosize=1;strokeColor=none;fillColor=none;" vertex="1" parent="1"><mxGeometry x="40" y="310" width="730" height="30" as="geometry"/></mxCell><mxCell id="14" value="Resultado: El resultado de la operacion se presenta con dos cifras decimales, por lo que la respuesta es correcta" style="text;html=1;align=center;verticalAlign=middle;resizable=0;points=[];autosize=1;strokeColor=none;fillColor=none;" vertex="1" parent="1"><mxGeometry x="40" y="535" width="630" height="30" as="geometry"/></mxCell><mxCell id="15" value="Resultado: No se puede realizar una division entre 0, por lo que se muestra el mensaje de que la operacion es invalida" style="text;html=1;align=center;verticalAlign=middle;resizable=0;points=[];autosize=1;strokeColor=none;fillColor=none;" vertex="1" parent="1"><mxGeometry x="40" y="715" width="660" height="30" as="geometry"/></mxCell><mxCell id="16" value="Resultado: Para el sistema de ecuaciones se trabajan con las variables a,b y de la misma manera se utilizan las variables x, y" style="text;html=1;align=center;verticalAlign=middle;resizable=0;points=[];autosize=1;strokeColor=none;fillColor=none;" vertex="1" parent="1"><mxGeometry x="25" y="1020" width="690" height="30" as="geometry"/></mxCell></root></mxGraphModel></diagram></mxfile>